<svg xmlns:x="http://ns.adobe.com/Extensibility/1.0/"
     xmlns:i="http://ns.adobe.com/AdobeIllustrator/10.0/"
     xmlns:graph="http://ns.adobe.com/Graphs/1.0/"
     xmlns="http://www.w3.org/2000/svg"
     xmlns:xlink="http://www.w3.org/1999/xlink"
     version="1.1" id="Layer_1" x="0px" y="0px"
     viewBox="0 0 80 80"
     enable-background="new 0 0 100 100"
     xml:space="preserve"
     height="100px" width="100px">
		<g fill="#4CAF50">
			<path d="M40,0C17.9,0,0,17.9,0,40c0,22.1,17.9,40,40,40s40-17.9,40-40S62.1,0,40,0z M64,50.9
		c-5.5,7.9-14.5,12.7-24,12.7c-9.6,0-18.6-4.7-24-12.7c-1.2-1.8-0.8-4.2,1-5.4c1.8-1.2,4.2-0.8,5.4,1c4,5.8,10.6,9.3,17.6,9.3
		s13.6-3.5,17.6-9.3c1.2-1.8,3.6-2.2,5.4-1C64.8,46.7,65.3,49.1,64,50.9z M30.1,20.5c3.4,0,6.2,2.8,6.2,6.2s-2.8,6.2-6.2,6.2
		s-6.2-2.8-6.2-6.2C23.8,23.3,26.6,20.5,30.1,20.5z M50.6,20.5c3.4,0,6.2,2.8,6.2,6.2s-2.8,6.2-6.2,6.2s-6.2-2.8-6.2-6.2
		C44.3,23.3,47.1,20.5,50.6,20.5z"/>
		</g>
	
</svg>