<svg xmlns:x="http://ns.adobe.com/Extensibility/1.0/"
     xmlns:i="http://ns.adobe.com/AdobeIllustrator/10.0/"
     xmlns:graph="http://ns.adobe.com/Graphs/1.0/"
     xmlns="http://www.w3.org/2000/svg"
     xmlns:xlink="http://www.w3.org/1999/xlink"
     version="1.1" id="Layer_1" x="0px" y="0px"
     viewBox="0 0 80 80"
     enable-background="new 0 0 100 100"
     xml:space="preserve"
     height="100px" width="100px">
		<g fill="#4caf50">
			<path d="M77,9.6l-2.1-1.8C71.3,4.7,66,5,62.8,8.5L27,48.2l-10.8-9.3c-3.6-3.1-8.9-2.7-12,0.8l-1.9,2.1c-1.5,1.7-2.3,3.9-2.2,6.2
	c0.1,2.3,1.1,4.4,2.8,6L22.7,72c1.7,1.6,4,2.4,6.4,2.3c2.4-0.1,4.6-1.2,6.1-3l42.8-49.6c1.5-1.7,2.2-4,2.1-6.3
	C79.8,13.2,78.7,11,77,9.6z"/>
		</g>
	
</svg>